STARTFONT 2.1
COMMENT 
COMMENT original comment from 8x13.bdf:
COMMENT Base font designed and made by
COMMENT Thomas Bagli (pyramid!pcsbst!tom@uunet.UU.NET)
COMMENT PCS Computer Systeme, West Germany
COMMENT 
COMMENT original comment from heb8x13.bdf:
COMMENT Characters #224--#250 designed, made, and are
COMMENT Copyright (c) 1991 by Joseph Friedman (yossi@CS.Stanford.EDU).
COMMENT The rest of the font is taken from 8x13.bdf.
COMMENT 
COMMENT comment for heb8x13B.bdf:
COMMENT Bold Hebrew mods for #224-#250 made by and are
COMMENT Copyright 1992 Andrew Tannenbaum (trb@ima.isc.com)
COMMENT The rest of the font is based on 8x13.bdf and heb8x13.bdf
COMMENT 
COMMENT Permission to use, copy, modify, distribute, and sell this
COMMENT software and its documentation for any purpose is hereby
COMMENT granted without fee, provided that the above copyright
COMMENT notices appear in all copies.
COMMENT 
FONT -Misc-Fixed-Bold-R-Normal--13-120-75-75-C-80-ISO8859-8
SIZE 13 78 78
FONTBOUNDINGBOX 8 13 0 -3
STARTPROPERTIES 19
FONTNAME_REGISTRY ""
FOUNDRY "Misc"
FAMILY_NAME "Fixed"
WEIGHT_NAME "Bold"
SLANT "R"
SETWIDTH_NAME "Normal"
ADD_STYLE_NAME ""
PIXEL_SIZE 13
POINT_SIZE 120
RESOLUTION_X 75
RESOLUTION_Y 75
SPACING "C"
AVERAGE_WIDTH 80
CHARSET_REGISTRY "ISO8859"
CHARSET_ENCODING "8"
DEFAULT_CHAR 0
FONT_DESCENT 3
FONT_ASCENT 10
COPYRIGHT "Copyright 1992 Andrew Tannenbaum"
ENDPROPERTIES
CHARS 186
STARTCHAR C000
ENCODING 0
SWIDTH 666 0
DWIDTH 8 0
BBX 8 13 0 -3
BITMAP
0000
0000
0000
0000
fe00
fe00
fe00
fe00
fe00
fe00
fe00
0000
0000
ENDCHAR
STARTCHAR C001
ENCODING 1
SWIDTH 666 0
DWIDTH 8 0
BBX 8 13 0 -3
BITMAP
0000
0000
0000
1000
3800
7c00
fe00
7c00
3800
1000
0000
0000
0000
ENDCHAR
STARTCHAR C002
ENCODING 2
SWIDTH 666 0
DWIDTH 8 0
BBX 8 13 0 -3
BITMAP
0000
0000
0000
0000
d600
6c00
d600
6c00
d600
6c00
d600
0000
0000
ENDCHAR
STARTCHAR C003
ENCODING 3
SWIDTH 666 0
DWIDTH 8 0
BBX 8 13 0 -3
BITMAP
0000
0000
cc00
cc00
fc00
cc00
cc00
0000
7e00
1800
1800
1800
1800
ENDCHAR
STARTCHAR C004
ENCODING 4
SWIDTH 666 0
DWIDTH 8 0
BBX 8 13 0 -3
BITMAP
0000
0000
f800
c000
f000
c000
c000
0000
3e00
3000
3c00
3000
3000
ENDCHAR
STARTCHAR C005
ENCODING 5
SWIDTH 666 0
DWIDTH 8 0
BBX 8 13 0 -3
BITMAP
0000
0000
7c00
c400
c000
c400
7c00
0000
7c00
6600
7c00
6600
6600
ENDCHAR
STARTCHAR C006
ENCODING 6
SWIDTH 666 0
DWIDTH 8 0
BBX 8 13 0 -3
BITMAP
0000
0000
c000
c000
c000
c000
f800
0000
3e00
3000
3c00
3000
3000
ENDCHAR
STARTCHAR C007
ENCODING 7
SWIDTH 666 0
DWIDTH 8 0
BBX 8 13 0 -3
BITMAP
0000
0000
0000
0000
3c00
6600
6600
3c00
0000
0000
0000
0000
0000
ENDCHAR
STARTCHAR C010
ENCODING 8
SWIDTH 666 0
DWIDTH 8 0
BBX 8 13 0 -3
BITMAP
0000
0000
1800
1800
7e00
7e00
1800
1800
0000
7e00
7e00
0000
0000
ENDCHAR
STARTCHAR C011
ENCODING 9
SWIDTH 666 0
DWIDTH 8 0
BBX 8 13 0 -3
BITMAP
0000
0000
cc00
ec00
fc00
dc00
cc00
0000
3000
3000
3000
3000
3e00
ENDCHAR
STARTCHAR C012
ENCODING 10
SWIDTH 666 0
DWIDTH 8 0
BBX 8 13 0 -3
BITMAP
0000
0000
cc00
cc00
4800
7800
3000
0000
7e00
1800
1800
1800
1800
ENDCHAR
STARTCHAR C013
ENCODING 11
SWIDTH 666 0
DWIDTH 8 0
BBX 8 13 0 -3
BITMAP
1800
1800
1800
1800
1800
1800
f800
f800
0000
0000
0000
0000
0000
ENDCHAR
STARTCHAR C014
ENCODING 12
SWIDTH 666 0
DWIDTH 8 0
BBX 8 13 0 -3
BITMAP
0000
0000
0000
0000
0000
0000
f800
f800
1800
1800
1800
1800
1800
ENDCHAR
STARTCHAR C015
ENCODING 13
SWIDTH 666 0
DWIDTH 8 0
BBX 8 13 0 -3
BITMAP
0000
0000
0000
0000
0000
0000
1f00
1f00
1800
1800
1800
1800
1800
ENDCHAR
STARTCHAR C016
ENCODING 14
SWIDTH 666 0
DWIDTH 8 0
BBX 8 13 0 -3
BITMAP
1800
1800
1800
1800
1800
1800
1f00
1f00
0000
0000
0000
0000
0000
ENDCHAR
STARTCHAR C017
ENCODING 15
SWIDTH 666 0
DWIDTH 8 0
BBX 8 13 0 -3
BITMAP
1800
1800
1800
1800
1800
1800
ff00
ff00
1800
1800
1800
1800
1800
ENDCHAR
STARTCHAR C020
ENCODING 16
SWIDTH 666 0
DWIDTH 8 0
BBX 8 13 0 -3
BITMAP
0000
0000
ff00
ff00
0000
0000
0000
0000
0000
0000
0000
0000
0000
ENDCHAR
STARTCHAR C021
ENCODING 17
SWIDTH 666 0
DWIDTH 8 0
BBX 8 13 0 -3
BITMAP
0000
0000
0000
0000
ff00
ff00
0000
0000
0000
0000
0000
0000
0000
ENDCHAR
STARTCHAR C022
ENCODING 18
SWIDTH 666 0
DWIDTH 8 0
BBX 8 13 0 -3
BITMAP
0000
0000
0000
0000
0000
0000
ff00
ff00
0000
0000
0000
0000
0000
ENDCHAR
STARTCHAR C023
ENCODING 19
SWIDTH 666 0
DWIDTH 8 0
BBX 8 13 0 -3
BITMAP
0000
0000
0000
0000
0000
0000
0000
0000
ff00
ff00
0000
0000
0000
ENDCHAR
STARTCHAR C024
ENCODING 20
SWIDTH 666 0
DWIDTH 8 0
BBX 8 13 0 -3
BITMAP
0000
0000
0000
0000
0000
0000
0000
0000
0000
0000
ff00
ff00
0000
ENDCHAR
STARTCHAR C025
ENCODING 21
SWIDTH 666 0
DWIDTH 8 0
BBX 8 13 0 -3
BITMAP
1800
1800
1800
1800
1800
1800
1f00
1f00
1800
1800
1800
1800
1800
ENDCHAR
STARTCHAR C026
ENCODING 22
SWIDTH 666 0
DWIDTH 8 0
BBX 8 13 0 -3
BITMAP
1800
1800
1800
1800
1800
1800
f800
f800
1800
1800
1800
1800
1800
ENDCHAR
STARTCHAR C027
ENCODING 23
SWIDTH 666 0
DWIDTH 8 0
BBX 8 13 0 -3
BITMAP
1800
1800
1800
1800
1800
1800
ff00
ff00
0000
0000
0000
0000
0000
ENDCHAR
STARTCHAR C030
ENCODING 24
SWIDTH 666 0
DWIDTH 8 0
BBX 8 13 0 -3
BITMAP
0000
0000
0000
0000
0000
0000
ff00
ff00
1800
1800
1800
1800
1800
ENDCHAR
STARTCHAR C031
ENCODING 25
SWIDTH 666 0
DWIDTH 8 0
BBX 8 13 0 -3
BITMAP
1800
1800
1800
1800
1800
1800
1800
1800
1800
1800
1800
1800
1800
ENDCHAR
STARTCHAR C032
ENCODING 26
SWIDTH 666 0
DWIDTH 8 0
BBX 8 13 0 -3
BITMAP
0000
0600
1c00
7000
c000
7000
1c00
0600
0000
fe00
fe00
0000
0000
ENDCHAR
STARTCHAR C033
ENCODING 27
SWIDTH 666 0
DWIDTH 8 0
BBX 8 13 0 -3
BITMAP
0000
c000
7000
1c00
0600
1c00
7000
c000
0000
fe00
fe00
0000
0000
ENDCHAR
STARTCHAR C034
ENCODING 28
SWIDTH 666 0
DWIDTH 8 0
BBX 8 13 0 -3
BITMAP
0000
0000
0000
0000
fe00
fe00
2c00
2c00
2c00
ec00
ec00
0000
0000
ENDCHAR
STARTCHAR C035
ENCODING 29
SWIDTH 666 0
DWIDTH 8 0
BBX 8 13 0 -3
BITMAP
0000
0000
0600
0c00
fe00
fe00
3800
fe00
fe00
6000
c000
0000
0000
ENDCHAR
STARTCHAR C036
ENCODING 30
SWIDTH 666 0
DWIDTH 8 0
BBX 8 13 0 -3
BITMAP
0000
3c00
6600
6000
6000
fc00
6000
6000
6000
f000
be00
e000
0000
ENDCHAR
STARTCHAR C037
ENCODING 31
SWIDTH 666 0
DWIDTH 8 0
BBX 8 13 0 -3
BITMAP
0000
0000
0000
0000
0000
0000
0000
1800
1800
0000
0000
0000
0000
ENDCHAR
STARTCHAR C040
ENCODING 32
SWIDTH 666 0
DWIDTH 8 0
BBX 8 13 0 -3
BITMAP
0000
0000
0000
0000
0000
0000
0000
0000
0000
0000
0000
0000
0000
ENDCHAR
STARTCHAR !
ENCODING 33
SWIDTH 666 0
DWIDTH 8 0
BBX 8 13 0 -3
BITMAP
0000
1800
1800
1800
1800
1800
1800
1800
0000
1800
1800
0000
0000
ENDCHAR
STARTCHAR "
ENCODING 34
SWIDTH 666 0
DWIDTH 8 0
BBX 8 13 0 -3
BITMAP
0000
6c00
6c00
6c00
6c00
0000
0000
0000
0000
0000
0000
0000
0000
ENDCHAR
STARTCHAR #
ENCODING 35
SWIDTH 666 0
DWIDTH 8 0
BBX 8 13 0 -3
BITMAP
0000
0000
6c00
6c00
fe00
fe00
6c00
fe00
fe00
6c00
6c00
0000
0000
ENDCHAR
STARTCHAR $
ENCODING 36
SWIDTH 666 0
DWIDTH 8 0
BBX 8 13 0 -3
BITMAP
0000
1000
7c00
d600
d000
f000
7c00
1e00
1600
d600
7c00
1000
0000
ENDCHAR
STARTCHAR %
ENCODING 37
SWIDTH 666 0
DWIDTH 8 0
BBX 8 13 0 -3
BITMAP
0000
e600
a600
ec00
1800
1800
3000
3000
6e00
ca00
ce00
0000
0000
ENDCHAR
STARTCHAR &
ENCODING 38
SWIDTH 666 0
DWIDTH 8 0
BBX 8 13 0 -3
BITMAP
0000
7800
cc00
cc00
cc00
7800
7800
ce00
cc00
cc00
7e00
0000
0000
ENDCHAR
STARTCHAR '
ENCODING 39
SWIDTH 666 0
DWIDTH 8 0
BBX 8 13 0 -3
BITMAP
0000
3c00
1c00
1c00
1800
3000
0000
0000
0000
0000
0000
0000
0000
ENDCHAR
STARTCHAR (
ENCODING 40
SWIDTH 666 0
DWIDTH 8 0
BBX 8 13 0 -3
BITMAP
0000
0600
0c00
1800
1800
3000
3000
3000
1800
1800
0c00
0600
0000
ENDCHAR
STARTCHAR )
ENCODING 41
SWIDTH 666 0
DWIDTH 8 0
BBX 8 13 0 -3
BITMAP
0000
6000
3000
1800
1800
0c00
0c00
0c00
1800
1800
3000
6000
0000
ENDCHAR
STARTCHAR *
ENCODING 42
SWIDTH 666 0
DWIDTH 8 0
BBX 8 13 0 -3
BITMAP
0000
0000
1000
d600
7c00
3800
ee00
3800
7c00
d600
1000
0000
0000
ENDCHAR
STARTCHAR +
ENCODING 43
SWIDTH 666 0
DWIDTH 8 0
BBX 8 13 0 -3
BITMAP
0000
0000
0000
1800
1800
7e00
7e00
1800
1800
0000
0000
0000
0000
ENDCHAR
STARTCHAR ,
ENCODING 44
SWIDTH 666 0
DWIDTH 8 0
BBX 8 13 0 -3
BITMAP
0000
0000
0000
0000
0000
0000
0000
3c00
1c00
1c00
1800
3000
0000
ENDCHAR
STARTCHAR -
ENCODING 45
SWIDTH 666 0
DWIDTH 8 0
BBX 8 13 0 -3
BITMAP
0000
0000
0000
0000
0000
fe00
fe00
0000
0000
0000
0000
0000
0000
ENDCHAR
STARTCHAR .
ENCODING 46
SWIDTH 666 0
DWIDTH 8 0
BBX 8 13 0 -3
BITMAP
0000
0000
0000
0000
0000
0000
0000
0000
1800
3c00
1800
0000
0000
ENDCHAR
STARTCHAR /
ENCODING 47
SWIDTH 666 0
DWIDTH 8 0
BBX 8 13 0 -3
BITMAP
0000
0200
0600
0600
0c00
1800
3000
6000
c000
c000
8000
0000
0000
ENDCHAR
STARTCHAR 0
ENCODING 48
SWIDTH 666 0
DWIDTH 8 0
BBX 8 13 0 -3
BITMAP
0000
3800
6c00
c600
c600
c600
c600
c600
c600
6c00
3800
0000
0000
ENDCHAR
STARTCHAR 1
ENCODING 49
SWIDTH 666 0
DWIDTH 8 0
BBX 8 13 0 -3
BITMAP
0000
1800
3800
7800
1800
1800
1800
1800
1800
1800
7e00
0000
0000
ENDCHAR
STARTCHAR 2
ENCODING 50
SWIDTH 666 0
DWIDTH 8 0
BBX 8 13 0 -3
BITMAP
0000
7c00
c600
c600
0600
0c00
1800
3000
6000
c000
fe00
0000
0000
ENDCHAR
STARTCHAR 3
ENCODING 51
SWIDTH 666 0
DWIDTH 8 0
BBX 8 13 0 -3
BITMAP
0000
fe00
0600
0c00
1800
3c00
0600
0600
0600
c600
7c00
0000
0000
ENDCHAR
STARTCHAR 4
ENCODING 52
SWIDTH 666 0
DWIDTH 8 0
BBX 8 13 0 -3
BITMAP
0000
0c00
1c00
3c00
6c00
cc00
cc00
fe00
0c00
0c00
0c00
0000
0000
ENDCHAR
STARTCHAR 5
ENCODING 53
SWIDTH 666 0
DWIDTH 8 0
BBX 8 13 0 -3
BITMAP
0000
fe00
c000
c000
fc00
e600
0600
0600
0600
c600
7c00
0000
0000
ENDCHAR
STARTCHAR 6
ENCODING 54
SWIDTH 666 0
DWIDTH 8 0
BBX 8 13 0 -3
BITMAP
0000
3c00
6000
c000
c000
fc00
e600
c600
c600
e600
7c00
0000
0000
ENDCHAR
STARTCHAR 7
ENCODING 55
SWIDTH 666 0
DWIDTH 8 0
BBX 8 13 0 -3
BITMAP
0000
fe00
0600
0600
0c00
1800
1800
3000
3000
3000
3000
0000
0000
ENDCHAR
STARTCHAR 8
ENCODING 56
SWIDTH 666 0
DWIDTH 8 0
BBX 8 13 0 -3
BITMAP
0000
7c00
c600
c600
c600
7c00
c600
c600
c600
c600
7c00
0000
0000
ENDCHAR
STARTCHAR 9
ENCODING 57
SWIDTH 666 0
DWIDTH 8 0
BBX 8 13 0 -3
BITMAP
0000
7c00
ce00
c600
c600
ce00
7e00
0600
0600
0c00
7800
0000
0000
ENDCHAR
STARTCHAR :
ENCODING 58
SWIDTH 666 0
DWIDTH 8 0
BBX 8 13 0 -3
BITMAP
0000
0000
0000
1800
3c00
1800
0000
0000
1800
3c00
1800
0000
0000
ENDCHAR
STARTCHAR ;
ENCODING 59
SWIDTH 666 0
DWIDTH 8 0
BBX 8 13 0 -3
BITMAP
0000
0000
0000
1800
3c00
1800
0000
3c00
1c00
1c00
1800
3000
0000
ENDCHAR
STARTCHAR <
ENCODING 60
SWIDTH 666 0
DWIDTH 8 0
BBX 8 13 0 -3
BITMAP
0000
0000
0600
0c00
1800
3000
6000
3000
1800
0c00
0600
0000
0000
ENDCHAR
STARTCHAR =
ENCODING 61
SWIDTH 666 0
DWIDTH 8 0
BBX 8 13 0 -3
BITMAP
0000
0000
0000
0000
7e00
7e00
0000
0000
7e00
7e00
0000
0000
0000
ENDCHAR
STARTCHAR >
ENCODING 62
SWIDTH 666 0
DWIDTH 8 0
BBX 8 13 0 -3
BITMAP
0000
0000
6000
3000
1800
0c00
0600
0c00
1800
3000
6000
0000
0000
ENDCHAR
STARTCHAR ?
ENCODING 63
SWIDTH 666 0
DWIDTH 8 0
BBX 8 13 0 -3
BITMAP
0000
7c00
c600
c600
0600
0c00
1800
1800
0000
1800
1800
0000
0000
ENDCHAR
STARTCHAR @
ENCODING 64
SWIDTH 666 0
DWIDTH 8 0
BBX 8 13 0 -3
BITMAP
0000
0000
7c00
fe00
ce00
de00
d200
d200
de00
e000
7e00
0000
0000
ENDCHAR
STARTCHAR A
ENCODING 65
SWIDTH 666 0
DWIDTH 8 0
BBX 8 13 0 -3
BITMAP
0000
3800
7c00
c600
c600
c600
fe00
c600
c600
c600
c600
0000
0000
ENDCHAR
STARTCHAR B
ENCODING 66
SWIDTH 666 0
DWIDTH 8 0
BBX 8 13 0 -3
BITMAP
0000
fc00
6600
6600
6600
7c00
6600
6600
6600
6600
fc00
0000
0000
ENDCHAR
STARTCHAR C
ENCODING 67
SWIDTH 666 0
DWIDTH 8 0
BBX 8 13 0 -3
BITMAP
0000
7c00
e600
c600
c000
c000
c000
c000
c600
e600
7c00
0000
0000
ENDCHAR
STARTCHAR D
ENCODING 68
SWIDTH 666 0
DWIDTH 8 0
BBX 8 13 0 -3
BITMAP
0000
fc00
6600
6600
6600
6600
6600
6600
6600
6600
fc00
0000
0000
ENDCHAR
STARTCHAR E
ENCODING 69
SWIDTH 666 0
DWIDTH 8 0
BBX 8 13 0 -3
BITMAP
0000
fe00
c200
c000
c000
f800
c000
c000
c000
c200
fe00
0000
0000
ENDCHAR
STARTCHAR F
ENCODING 70
SWIDTH 666 0
DWIDTH 8 0
BBX 8 13 0 -3
BITMAP
0000
fe00
c200
c000
c000
f800
c000
c000
c000
c000
c000
0000
0000
ENDCHAR
STARTCHAR G
ENCODING 71
SWIDTH 666 0
DWIDTH 8 0
BBX 8 13 0 -3
BITMAP
0000
7c00
c600
c600
c000
c000
c000
ce00
c600
c600
7c00
0000
0000
ENDCHAR
STARTCHAR H
ENCODING 72
SWIDTH 666 0
DWIDTH 8 0
BBX 8 13 0 -3
BITMAP
0000
c600
c600
c600
c600
fe00
c600
c600
c600
c600
c600
0000
0000
ENDCHAR
STARTCHAR I
ENCODING 73
SWIDTH 666 0
DWIDTH 8 0
BBX 8 13 0 -3
BITMAP
0000
3c00
1800
1800
1800
1800
1800
1800
1800
1800
3c00
0000
0000
ENDCHAR
STARTCHAR J
ENCODING 74
SWIDTH 666 0
DWIDTH 8 0
BBX 8 13 0 -3
BITMAP
0000
0e00
0600
0600
0600
0600
0600
0600
c600
c600
7c00
0000
0000
ENDCHAR
STARTCHAR K
ENCODING 75
SWIDTH 666 0
DWIDTH 8 0
BBX 8 13 0 -3
BITMAP
0000
c600
c600
cc00
d800
f000
f000
d800
cc00
c600
c600
0000
0000
ENDCHAR
STARTCHAR L
ENCODING 76
SWIDTH 666 0
DWIDTH 8 0
BBX 8 13 0 -3
BITMAP
0000
c000
c000
c000
c000
c000
c000
c000
c000
c200
fe00
0000
0000
ENDCHAR
STARTCHAR M
ENCODING 77
SWIDTH 666 0
DWIDTH 8 0
BBX 8 13 0 -3
BITMAP
0000
c600
c600
ee00
fe00
d600
c600
c600
c600
c600
c600
0000
0000
ENDCHAR
STARTCHAR N
ENCODING 78
SWIDTH 666 0
DWIDTH 8 0
BBX 8 13 0 -3
BITMAP
0000
c600
c600
e600
e600
f600
de00
ce00
ce00
c600
c600
0000
0000
ENDCHAR
STARTCHAR O
ENCODING 79
SWIDTH 666 0
DWIDTH 8 0
BBX 8 13 0 -3
BITMAP
0000
7c00
c600
c600
c600
c600
c600
c600
c600
c600
7c00
0000
0000
ENDCHAR
STARTCHAR P
ENCODING 80
SWIDTH 666 0
DWIDTH 8 0
BBX 8 13 0 -3
BITMAP
0000
fc00
c600
c600
c600
c600
fc00
c000
c000
c000
c000
0000
0000
ENDCHAR
STARTCHAR Q
ENCODING 81
SWIDTH 666 0
DWIDTH 8 0
BBX 8 13 0 -3
BITMAP
0000
7c00
c600
c600
c600
c600
c600
c600
c600
de00
7c00
0600
0000
ENDCHAR
STARTCHAR R
ENCODING 82
SWIDTH 666 0
DWIDTH 8 0
BBX 8 13 0 -3
BITMAP
0000
fc00
c600
c600
c600
fc00
f800
cc00
cc00
c600
c600
0000
0000
ENDCHAR
STARTCHAR S
ENCODING 83
SWIDTH 666 0
DWIDTH 8 0
BBX 8 13 0 -3
BITMAP
0000
7c00
c600
c600
c000
7c00
0600
0600
c600
c600
7c00
0000
0000
ENDCHAR
STARTCHAR T
ENCODING 84
SWIDTH 666 0
DWIDTH 8 0
BBX 8 13 0 -3
BITMAP
0000
7e00
1800
1800
1800
1800
1800
1800
1800
1800
1800
0000
0000
ENDCHAR
STARTCHAR U
ENCODING 85
SWIDTH 666 0
DWIDTH 8 0
BBX 8 13 0 -3
BITMAP
0000
c600
c600
c600
c600
c600
c600
c600
c600
c600
7c00
0000
0000
ENDCHAR
STARTCHAR V
ENCODING 86
SWIDTH 666 0
DWIDTH 8 0
BBX 8 13 0 -3
BITMAP
0000
c600
c600
c600
c600
4400
6c00
6c00
3800
3800
1000
0000
0000
ENDCHAR
STARTCHAR W
ENCODING 87
SWIDTH 666 0
DWIDTH 8 0
BBX 8 13 0 -3
BITMAP
0000
c600
c600
c600
c600
c600
c600
d600
d600
fe00
6c00
0000
0000
ENDCHAR
STARTCHAR X
ENCODING 88
SWIDTH 666 0
DWIDTH 8 0
BBX 8 13 0 -3
BITMAP
0000
c600
c600
6c00
6c00
3800
3800
6c00
6c00
c600
c600
0000
0000
ENDCHAR
STARTCHAR Y
ENCODING 89
SWIDTH 666 0
DWIDTH 8 0
BBX 8 13 0 -3
BITMAP
0000
6600
6600
6600
3c00
3c00
1800
1800
1800
1800
1800
0000
0000
ENDCHAR
STARTCHAR Z
ENCODING 90
SWIDTH 666 0
DWIDTH 8 0
BBX 8 13 0 -3
BITMAP
0000
fe00
0600
0600
0c00
1800
3000
6000
c000
c000
fe00
0000
0000
ENDCHAR
STARTCHAR [
ENCODING 91
SWIDTH 666 0
DWIDTH 8 0
BBX 8 13 0 -3
BITMAP
0000
3e00
3000
3000
3000
3000
3000
3000
3000
3000
3000
3e00
0000
ENDCHAR
STARTCHAR \
ENCODING 92
SWIDTH 666 0
DWIDTH 8 0
BBX 8 13 0 -3
BITMAP
0000
8000
c000
c000
6000
3000
1800
0c00
0600
0600
0200
0000
0000
ENDCHAR
STARTCHAR ]
ENCODING 93
SWIDTH 666 0
DWIDTH 8 0
BBX 8 13 0 -3
BITMAP
0000
7c00
0c00
0c00
0c00
0c00
0c00
0c00
0c00
0c00
0c00
7c00
0000
ENDCHAR
STARTCHAR ^
ENCODING 94
SWIDTH 666 0
DWIDTH 8 0
BBX 8 13 0 -3
BITMAP
0000
1000
3800
6c00
c600
0000
0000
0000
0000
0000
0000
0000
0000
ENDCHAR
STARTCHAR _
ENCODING 95
SWIDTH 666 0
DWIDTH 8 0
BBX 8 13 0 -3
BITMAP
0000
0000
0000
0000
0000
0000
0000
0000
0000
0000
0000
fe00
0000
ENDCHAR
STARTCHAR `
ENCODING 96
SWIDTH 666 0
DWIDTH 8 0
BBX 8 13 0 -3
BITMAP
0000
3c00
3800
3800
1800
0c00
0000
0000
0000
0000
0000
0000
0000
ENDCHAR
STARTCHAR a
ENCODING 97
SWIDTH 666 0
DWIDTH 8 0
BBX 8 13 0 -3
BITMAP
0000
0000
0000
0000
7c00
0600
7e00
c600
c600
ce00
7e00
0000
0000
ENDCHAR
STARTCHAR b
ENCODING 98
SWIDTH 666 0
DWIDTH 8 0
BBX 8 13 0 -3
BITMAP
0000
c000
c000
c000
fc00
e600
c600
c600
c600
e600
fc00
0000
0000
ENDCHAR
STARTCHAR c
ENCODING 99
SWIDTH 666 0
DWIDTH 8 0
BBX 8 13 0 -3
BITMAP
0000
0000
0000
0000
7c00
e600
c000
c000
c000
e600
7c00
0000
0000
ENDCHAR
STARTCHAR d
ENCODING 100
SWIDTH 666 0
DWIDTH 8 0
BBX 8 13 0 -3
BITMAP
0000
0600
0600
0600
7e00
ce00
c600
c600
c600
ce00
7e00
0000
0000
ENDCHAR
STARTCHAR e
ENCODING 101
SWIDTH 666 0
DWIDTH 8 0
BBX 8 13 0 -3
BITMAP
0000
0000
0000
0000
7c00
c600
c600
fe00
c000
c600
7c00
0000
0000
ENDCHAR
STARTCHAR f
ENCODING 102
SWIDTH 666 0
DWIDTH 8 0
BBX 8 13 0 -3
BITMAP
0000
3c00
6600
6000
6000
6000
fc00
6000
6000
6000
6000
0000
0000
ENDCHAR
STARTCHAR g
ENCODING 103
SWIDTH 666 0
DWIDTH 8 0
BBX 8 13 0 -3
BITMAP
0000
0000
0000
0000
7e00
cc00
cc00
cc00
7800
f000
7c00
c600
7c00
ENDCHAR
STARTCHAR h
ENCODING 104
SWIDTH 666 0
DWIDTH 8 0
BBX 8 13 0 -3
BITMAP
0000
c000
c000
c000
fc00
e600
c600
c600
c600
c600
c600
0000
0000
ENDCHAR
STARTCHAR i
ENCODING 105
SWIDTH 666 0
DWIDTH 8 0
BBX 8 13 0 -3
BITMAP
0000
0000
1800
1800
0000
3800
1800
1800
1800
1800
3c00
0000
0000
ENDCHAR
STARTCHAR j
ENCODING 106
SWIDTH 666 0
DWIDTH 8 0
BBX 8 13 0 -3
BITMAP
0000
0000
0600
0600
0000
0e00
0600
0600
0600
0600
c600
c600
7c00
ENDCHAR
STARTCHAR k
ENCODING 107
SWIDTH 666 0
DWIDTH 8 0
BBX 8 13 0 -3
BITMAP
0000
c000
c000
c000
cc00
d800
f000
f000
d800
cc00
c600
0000
0000
ENDCHAR
STARTCHAR l
ENCODING 108
SWIDTH 666 0
DWIDTH 8 0
BBX 8 13 0 -3
BITMAP
0000
3800
1800
1800
1800
1800
1800
1800
1800
1800
3c00
0000
0000
ENDCHAR
STARTCHAR m
ENCODING 109
SWIDTH 666 0
DWIDTH 8 0
BBX 8 13 0 -3
BITMAP
0000
0000
0000
0000
6c00
fe00
d600
d600
c600
c600
c600
0000
0000
ENDCHAR
STARTCHAR n
ENCODING 110
SWIDTH 666 0
DWIDTH 8 0
BBX 8 13 0 -3
BITMAP
0000
0000
0000
0000
fc00
e600
c600
c600
c600
c600
c600
0000
0000
ENDCHAR
STARTCHAR o
ENCODING 111
SWIDTH 666 0
DWIDTH 8 0
BBX 8 13 0 -3
BITMAP
0000
0000
0000
0000
7c00
c600
c600
c600
c600
c600
7c00
0000
0000
ENDCHAR
STARTCHAR p
ENCODING 112
SWIDTH 666 0
DWIDTH 8 0
BBX 8 13 0 -3
BITMAP
0000
0000
0000
0000
fc00
e600
c600
c600
c600
e600
fc00
c000
c000
ENDCHAR
STARTCHAR q
ENCODING 113
SWIDTH 666 0
DWIDTH 8 0
BBX 8 13 0 -3
BITMAP
0000
0000
0000
0000
7e00
ce00
c600
c600
c600
ce00
7e00
0600
0600
ENDCHAR
STARTCHAR r
ENCODING 114
SWIDTH 666 0
DWIDTH 8 0
BBX 8 13 0 -3
BITMAP
0000
0000
0000
0000
fc00
e600
c000
c000
c000
c000
c000
0000
0000
ENDCHAR
STARTCHAR s
ENCODING 115
SWIDTH 666 0
DWIDTH 8 0
BBX 8 13 0 -3
BITMAP
0000
0000
0000
0000
7c00
c600
7800
3c00
0600
c600
7c00
0000
0000
ENDCHAR
STARTCHAR t
ENCODING 116
SWIDTH 666 0
DWIDTH 8 0
BBX 8 13 0 -3
BITMAP
0000
6000
6000
6000
6000
fc00
6000
6000
6000
6600
3c00
0000
0000
ENDCHAR
STARTCHAR u
ENCODING 117
SWIDTH 666 0
DWIDTH 8 0
BBX 8 13 0 -3
BITMAP
0000
0000
0000
0000
c600
c600
c600
c600
c600
ce00
7e00
0000
0000
ENDCHAR
STARTCHAR v
ENCODING 118
SWIDTH 666 0
DWIDTH 8 0
BBX 8 13 0 -3
BITMAP
0000
0000
0000
0000
c600
c600
c600
c600
6c00
6c00
3800
0000
0000
ENDCHAR
STARTCHAR w
ENCODING 119
SWIDTH 666 0
DWIDTH 8 0
BBX 8 13 0 -3
BITMAP
0000
0000
0000
0000
c600
c600
c600
d600
d600
fe00
6c00
0000
0000
ENDCHAR
STARTCHAR x
ENCODING 120
SWIDTH 666 0
DWIDTH 8 0
BBX 8 13 0 -3
BITMAP
0000
0000
0000
0000
c600
c600
7c00
3800
7c00
c600
c600
0000
0000
ENDCHAR
STARTCHAR y
ENCODING 121
SWIDTH 666 0
DWIDTH 8 0
BBX 8 13 0 -3
BITMAP
0000
0000
0000
0000
c600
c600
c600
c600
ce00
7e00
0600
c600
7c00
ENDCHAR
STARTCHAR z
ENCODING 122
SWIDTH 666 0
DWIDTH 8 0
BBX 8 13 0 -3
BITMAP
0000
0000
0000
0000
fe00
0c00
1800
3000
6000
c000
fe00
0000
0000
ENDCHAR
STARTCHAR {
ENCODING 123
SWIDTH 666 0
DWIDTH 8 0
BBX 8 13 0 -3
BITMAP
0000
1e00
3000
3000
3000
1800
7000
1800
3000
3000
3000
1e00
0000
ENDCHAR
STARTCHAR |
ENCODING 124
SWIDTH 666 0
DWIDTH 8 0
BBX 8 13 0 -3
BITMAP
0000
1800
1800
1800
1800
1800
1800
1800
1800
1800
1800
0000
0000
ENDCHAR
STARTCHAR }
ENCODING 125
SWIDTH 666 0
DWIDTH 8 0
BBX 8 13 0 -3
BITMAP
0000
7800
0c00
0c00
0c00
1800
0e00
1800
0c00
0c00
0c00
7800
0000
ENDCHAR
STARTCHAR ~
ENCODING 126
SWIDTH 666 0
DWIDTH 8 0
BBX 8 13 0 -3
BITMAP
0000
0000
7200
fe00
9c00
0000
0000
0000
0000
0000
0000
0000
0000
ENDCHAR
STARTCHAR C177
ENCODING 127
SWIDTH 666 0
DWIDTH 8 0
BBX 8 13 0 -3
BITMAP
0000
0000
0000
0000
0000
0000
0000
0000
0000
0000
0000
0000
0000
ENDCHAR
STARTCHAR nbsp
ENCODING 160
SWIDTH 666 0
DWIDTH 8 0
BBX 8 13 0 -3
BITMAP
0000
0000
0000
0000
0000
0000
0000
0000
0000
0000
0000
0000
0000
ENDCHAR
STARTCHAR 00a2
ENCODING 162
SWIDTH 666 0
DWIDTH 8 0
BBX 8 13 0 -3
BITMAP
0000
0000
1000
7c00
d400
d000
d000
d400
7c00
1000
0000
0000
0000
ENDCHAR
STARTCHAR 00a3
ENCODING 163
SWIDTH 666 0
DWIDTH 8 0
BBX 8 13 0 -3
BITMAP
0000
3c00
6600
6000
6000
fc00
6000
6000
6000
f000
be00
e000
0000
ENDCHAR
STARTCHAR 00a4
ENCODING 164
SWIDTH 666 0
DWIDTH 8 0
BBX 8 13 0 -3
BITMAP
0000
0000
0000
c600
fe00
6c00
4400
6c00
fe00
c600
0000
0000
0000
ENDCHAR
STARTCHAR 00a5
ENCODING 165
SWIDTH 666 0
DWIDTH 8 0
BBX 8 13 0 -3
BITMAP
0000
6600
6600
6600
3c00
3c00
7e00
1800
7e00
1800
1800
0000
0000
ENDCHAR
STARTCHAR 00a6
ENCODING 166
SWIDTH 666 0
DWIDTH 8 0
BBX 8 13 0 -3
BITMAP
0000
1800
1800
1800
1800
0000
0000
1800
1800
1800
1800
0000
0000
ENDCHAR
STARTCHAR 00a7
ENCODING 167
SWIDTH 666 0
DWIDTH 8 0
BBX 8 13 0 -3
BITMAP
0000
3c00
6600
6000
3c00
6600
6600
3c00
0600
6600
3c00
0000
0000
ENDCHAR
STARTCHAR 00a8
ENCODING 168
SWIDTH 666 0
DWIDTH 8 0
BBX 8 13 0 -3
BITMAP
0000
6c00
6c00
0000
0000
0000
0000
0000
0000
0000
0000
0000
0000
ENDCHAR
STARTCHAR 00a9
ENCODING 169
SWIDTH 666 0
DWIDTH 8 0
BBX 8 13 0 -3
BITMAP
0000
7c00
c600
ba00
ea00
e200
ea00
ba00
c600
7c00
0000
0000
0000
ENDCHAR
STARTCHAR 00aa
ENCODING 170
SWIDTH 666 0
DWIDTH 8 0
BBX 8 13 0 -3
BITMAP
0000
7800
0c00
7c00
4c00
7c00
0000
7c00
0000
0000
0000
0000
0000
ENDCHAR
STARTCHAR 00ab
ENCODING 171
SWIDTH 666 0
DWIDTH 8 0
BBX 8 13 0 -3
BITMAP
0000
0000
0000
3600
6c00
d800
b000
d800
6c00
3600
0000
0000
0000
ENDCHAR
STARTCHAR 00ac
ENCODING 172
SWIDTH 666 0
DWIDTH 8 0
BBX 8 13 0 -3
BITMAP
0000
0000
0000
0000
0000
fc00
fc00
0400
0400
0400
0000
0000
0000
ENDCHAR
STARTCHAR 00ad
ENCODING 173
SWIDTH 666 0
DWIDTH 8 0
BBX 8 13 0 -3
BITMAP
0000
0000
0000
0000
0000
7e00
7e00
0000
0000
0000
0000
0000
0000
ENDCHAR
STARTCHAR 00ae
ENCODING 174
SWIDTH 666 0
DWIDTH 8 0
BBX 8 13 0 -3
BITMAP
0000
7c00
c600
ba00
aa00
ba00
b200
aa00
c600
7c00
0000
0000
0000
ENDCHAR
STARTCHAR 00af
ENCODING 175
SWIDTH 666 0
DWIDTH 8 0
BBX 8 13 0 -3
BITMAP
0000
7e00
7e00
0000
0000
0000
0000
0000
0000
0000
0000
0000
0000
ENDCHAR
STARTCHAR 00b0
ENCODING 176
SWIDTH 666 0
DWIDTH 8 0
BBX 8 13 0 -3
BITMAP
0000
3c00
6600
6600
3c00
0000
0000
0000
0000
0000
0000
0000
0000
ENDCHAR
STARTCHAR 00b1
ENCODING 177
SWIDTH 666 0
DWIDTH 8 0
BBX 8 13 0 -3
BITMAP
0000
0000
1800
1800
7e00
7e00
1800
1800
0000
7e00
7e00
0000
0000
ENDCHAR
STARTCHAR 00b2
ENCODING 178
SWIDTH 666 0
DWIDTH 8 0
BBX 8 13 0 -3
BITMAP
0000
7000
5800
1800
3000
6000
7800
0000
0000
0000
0000
0000
0000
ENDCHAR
STARTCHAR 00b3
ENCODING 179
SWIDTH 666 0
DWIDTH 8 0
BBX 8 13 0 -3
BITMAP
0000
7000
5800
3000
1800
5800
7000
0000
0000
0000
0000
0000
0000
ENDCHAR
STARTCHAR 00b4
ENCODING 180
SWIDTH 666 0
DWIDTH 8 0
BBX 8 13 0 -3
BITMAP
0000
1800
3000
0000
0000
0000
0000
0000
0000
0000
0000
0000
0000
ENDCHAR
STARTCHAR 00b5
ENCODING 181
SWIDTH 666 0
DWIDTH 8 0
BBX 8 13 0 -3
BITMAP
0000
0000
0000
0000
c600
c600
c600
c600
c600
ee00
fe00
8000
0000
ENDCHAR
STARTCHAR 00b6
ENCODING 182
SWIDTH 666 0
DWIDTH 8 0
BBX 8 13 0 -3
BITMAP
0000
3e00
7a00
ca00
ca00
ca00
7a00
3a00
0a00
0a00
0a00
0e00
0000
ENDCHAR
STARTCHAR 00b7
ENCODING 183
SWIDTH 666 0
DWIDTH 8 0
BBX 8 13 0 -3
BITMAP
0000
0000
0000
0000
0000
1800
1800
0000
0000
0000
0000
0000
0000
ENDCHAR
STARTCHAR 00b8
ENCODING 184
SWIDTH 666 0
DWIDTH 8 0
BBX 8 13 0 -3
BITMAP
0000
0000
0000
0000
0000
0000
0000
0000
0000
0000
1800
4800
3000
ENDCHAR
STARTCHAR 00b9
ENCODING 185
SWIDTH 666 0
DWIDTH 8 0
BBX 8 13 0 -3
BITMAP
0000
3000
7000
3000
3000
3000
7800
0000
0000
0000
0000
0000
0000
ENDCHAR
STARTCHAR 00ba
ENCODING 186
SWIDTH 666 0
DWIDTH 8 0
BBX 8 13 0 -3
BITMAP
0000
3800
7c00
4400
7c00
3800
0000
7c00
0000
0000
0000
0000
0000
ENDCHAR
STARTCHAR 00bb
ENCODING 187
SWIDTH 666 0
DWIDTH 8 0
BBX 8 13 0 -3
BITMAP
0000
0000
0000
d800
6c00
3600
1a00
3600
6c00
d800
0000
0000
0000
ENDCHAR
STARTCHAR 00bc
ENCODING 188
SWIDTH 666 0
DWIDTH 8 0
BBX 8 13 0 -3
BITMAP
0000
6000
e000
6000
6000
6200
f600
0e00
1a00
1e00
0600
0000
0000
ENDCHAR
STARTCHAR 00bd
ENCODING 189
SWIDTH 666 0
DWIDTH 8 0
BBX 8 13 0 -3
BITMAP
0000
6000
e000
6000
6000
7c00
f600
0600
0c00
1800
1e00
0000
0000
ENDCHAR
STARTCHAR 00be
ENCODING 190
SWIDTH 666 0
DWIDTH 8 0
BBX 8 13 0 -3
BITMAP
0000
e000
b000
6000
3000
b200
e600
0e00
1a00
1e00
0600
0000
0000
ENDCHAR
STARTCHAR 00df
ENCODING 223
SWIDTH 666 0
DWIDTH 8 0
BBX 8 13 0 -3
BITMAP
0000
0000
0000
0000
0000
0000
0000
0000
0000
0000
ff00
0000
ff00
ENDCHAR
STARTCHAR aleph
ENCODING 224
SWIDTH 666 0
DWIDTH 8 0
BBX 8 13 0 -3
BITMAP
0000
0000
4400
6600
6600
3300
1b00
3e00
6600
7300
3300
0000
0000
ENDCHAR
STARTCHAR bet
ENCODING 225
SWIDTH 666 0
DWIDTH 8 0
BBX 8 13 0 -3
BITMAP
0000
0000
4000
7c00
3e00
0600
0600
0600
0600
3f00
7f00
0000
0000
ENDCHAR
STARTCHAR gimel
ENCODING 226
SWIDTH 666 0
DWIDTH 8 0
BBX 8 13 0 -3
BITMAP
0000
0000
2000
3800
3800
0c00
0c00
0600
3e00
7300
6300
0000
0000
ENDCHAR
STARTCHAR dalet
ENCODING 227
SWIDTH 666 0
DWIDTH 8 0
BBX 8 13 0 -3
BITMAP
0000
0000
4000
7f00
3f00
0400
0600
0600
0600
0600
0400
0000
0000
ENDCHAR
STARTCHAR he
ENCODING 228
SWIDTH 666 0
DWIDTH 8 0
BBX 8 13 0 -3
BITMAP
0000
0000
4000
7f00
7f00
0200
1300
3300
3300
3300
3200
0000
0000
ENDCHAR
STARTCHAR waw
ENCODING 229
SWIDTH 666 0
DWIDTH 8 0
BBX 8 13 0 -3
BITMAP
0000
0000
1000
1800
1c00
0c00
0c00
0c00
0c00
0c00
0800
0000
0000
ENDCHAR
STARTCHAR zain
ENCODING 230
SWIDTH 666 0
DWIDTH 8 0
BBX 8 13 0 -3
BITMAP
0000
0000
2000
3c00
3e00
1800
1800
0c00
0c00
0c00
0800
0000
0000
ENDCHAR
STARTCHAR chet
ENCODING 231
SWIDTH 666 0
DWIDTH 8 0
BBX 8 13 0 -3
BITMAP
0000
0000
4000
7f00
3f00
3200
3300
3300
3300
3300
2200
0000
0000
ENDCHAR
STARTCHAR tet
ENCODING 232
SWIDTH 666 0
DWIDTH 8 0
BBX 8 13 0 -3
BITMAP
0000
0000
0000
4600
6f00
6b00
6300
6300
6700
7e00
7c00
0000
0000
ENDCHAR
STARTCHAR yod
ENCODING 233
SWIDTH 666 0
DWIDTH 8 0
BBX 8 13 0 -3
BITMAP
0000
0000
2000
3800
1c00
0c00
0c00
0800
0000
0000
0000
0000
0000
ENDCHAR
STARTCHAR endkaph
ENCODING 234
SWIDTH 666 0
DWIDTH 8 0
BBX 8 13 0 -3
BITMAP
0000
0000
4000
7f00
3f00
0200
0300
0300
0300
0300
0300
0300
0200
ENDCHAR
STARTCHAR kaph
ENCODING 235
SWIDTH 666 0
DWIDTH 8 0
BBX 8 13 0 -3
BITMAP
0000
0000
4000
7e00
3f00
0300
0300
0300
0700
3e00
7c00
0000
0000
ENDCHAR
STARTCHAR lamed
ENCODING 236
SWIDTH 666 0
DWIDTH 8 0
BBX 8 13 0 -3
BITMAP
0000
6000
6000
7e00
7f00
0300
0300
0300
0600
1c00
3800
0000
0000
ENDCHAR
STARTCHAR endmem
ENCODING 237
SWIDTH 666 0
DWIDTH 8 0
BBX 8 13 0 -3
BITMAP
0000
0000
4000
7f00
3f00
3300
3300
3300
3300
3f00
3f00
0000
0000
ENDCHAR
STARTCHAR mem
ENCODING 238
SWIDTH 666 0
DWIDTH 8 0
BBX 8 13 0 -3
BITMAP
0000
0000
4000
6c00
7e00
3700
6300
6300
6300
4f00
5f00
0000
0000
ENDCHAR
STARTCHAR endnun
ENCODING 239
SWIDTH 666 0
DWIDTH 8 0
BBX 8 13 0 -3
BITMAP
0000
0000
2000
3800
1c00
0600
0c00
0c00
0c00
0c00
0c00
0c00
0800
ENDCHAR
STARTCHAR nun
ENCODING 240
SWIDTH 666 0
DWIDTH 8 0
BBX 8 13 0 -3
BITMAP
0000
0000
1000
1c00
0e00
0600
0600
0600
0600
1e00
3e00
0000
0000
ENDCHAR
STARTCHAR samech
ENCODING 241
SWIDTH 666 0
DWIDTH 8 0
BBX 8 13 0 -3
BITMAP
0000
0000
4000
7e00
3f00
3300
3300
3300
3700
3e00
1c00
0000
0000
ENDCHAR
STARTCHAR ayin
ENCODING 242
SWIDTH 666 0
DWIDTH 8 0
BBX 8 13 0 -3
BITMAP
0000
0000
4400
6600
3300
3300
3300
3300
3700
3e00
7c00
0000
0000
ENDCHAR
STARTCHAR endpe
ENCODING 243
SWIDTH 666 0
DWIDTH 8 0
BBX 8 13 0 -3
BITMAP
0000
0000
4000
7e00
3f00
3300
3300
3b00
0300
0300
0300
0300
0200
ENDCHAR
STARTCHAR pe
ENCODING 244
SWIDTH 666 0
DWIDTH 8 0
BBX 8 13 0 -3
BITMAP
0000
0000
4000
7e00
3f00
3300
3300
3b00
0300
3e00
7c00
0000
0000
ENDCHAR
STARTCHAR endzade
ENCODING 245
SWIDTH 666 0
DWIDTH 8 0
BBX 8 13 0 -3
BITMAP
0000
0000
4400
6600
6300
3300
3600
3c00
3800
3000
3000
3000
2000
ENDCHAR
STARTCHAR zade
ENCODING 246
SWIDTH 666 0
DWIDTH 8 0
BBX 8 13 0 -3
BITMAP
0000
0000
4400
6600
6300
3300
3600
1c00
0600
3f00
7e00
0000
0000
ENDCHAR
STARTCHAR qoph
ENCODING 247
SWIDTH 666 0
DWIDTH 8 0
BBX 8 13 0 -3
BITMAP
0000
0000
4000
7e00
3f00
0300
4300
6300
6e00
6c00
6000
6000
4000
ENDCHAR
STARTCHAR resh
ENCODING 248
SWIDTH 666 0
DWIDTH 8 0
BBX 8 13 0 -3
BITMAP
0000
0000
4000
7c00
3e00
0700
0300
0300
0300
0300
0200
0000
0000
ENDCHAR
STARTCHAR shin
ENCODING 249
SWIDTH 666 0
DWIDTH 8 0
BBX 8 13 0 -3
BITMAP
0000
0000
4a00
6b00
6b00
6b00
6b00
7b00
6300
7e00
3c00
0000
0000
ENDCHAR
STARTCHAR taw
ENCODING 250
SWIDTH 666 0
DWIDTH 8 0
BBX 8 13 0 -3
BITMAP
0000
0000
4000
7e00
3f00
3300
3300
3300
3300
7300
7200
0000
0000
ENDCHAR
ENDFONT
